<?xml version="1.0" standalone="no"?>
<!DOCTYPE svg PUBLIC "-//W3C//DTD SVG 20010904//EN"
 "http://www.w3.org/TR/2001/REC-SVG-20010904/DTD/svg10.dtd">
<svg version="1.0" xmlns="http://www.w3.org/2000/svg"
 width="1518.000000pt" height="1518.000000pt" viewBox="0 0 1518.000000 1518.000000"
 preserveAspectRatio="xMidYMid meet">
<metadata>
Created by potrace 1.11, written by Peter Selinger 2001-2013
</metadata>
<g transform="translate(0.000000,1518.000000) scale(0.100000,-0.100000)"
fill="#000000" stroke="none">
<path d="M10650 12909 c-25 -5 -58 -11 -75 -14 -29 -4 -144 -37 -195 -56 -14
-5 -34 -12 -45 -16 -58 -20 -228 -113 -323 -176 -724 -484 -1280 -1469 -1542
-2732 -16 -77 -32 -160 -35 -185 -4 -24 -8 -47 -10 -50 -1 -3 -6 -25 -9 -50
-3 -25 -8 -54 -10 -66 -4 -19 -13 -87 -21 -151 -2 -13 -6 -40 -9 -60 -4 -21
-8 -58 -11 -83 -5 -55 -14 -144 -20 -185 -9 -67 -20 -231 -32 -455 -9 -177 -9
-653 0 -805 9 -152 21 -280 32 -349 2 -11 6 -41 9 -66 3 -25 8 -56 11 -70 3
-14 10 -54 16 -90 6 -36 17 -90 25 -120 8 -30 14 -59 14 -65 0 -10 -41 -24
-117 -40 -13 -3 -31 -7 -40 -10 -58 -15 -316 -67 -418 -84 -202 -34 -211 -35
-305 -45 -36 -4 -76 -9 -90 -11 -36 -5 -158 -17 -205 -20 -236 -15 -336 -18
-486 -18 l-176 0 1 -396 1 -396 50 1 c66 0 321 14 365 19 19 2 71 6 115 10 43
3 93 8 110 10 16 2 56 7 89 10 32 4 68 8 80 10 11 2 44 6 71 10 78 10 118 16
145 21 14 2 43 7 65 9 22 3 52 8 68 10 15 3 41 7 57 10 17 3 45 7 63 10 201
34 543 112 798 181 11 3 26 -16 54 -68 20 -40 44 -80 51 -89 8 -8 14 -19 14
-23 0 -11 102 -157 179 -256 138 -179 422 -432 605 -540 32 -19 72 -44 90 -54
57 -34 240 -123 311 -150 39 -15 79 -31 90 -36 20 -9 204 -66 241 -75 10 -2
37 -9 59 -14 22 -6 56 -13 75 -16 19 -3 42 -8 50 -10 23 -6 69 -14 130 -21 30
-3 64 -8 75 -10 27 -6 310 -5 355 0 19 3 62 8 95 11 221 22 406 86 740 255
315 160 402 192 630 234 53 10 198 20 275 19 196 -2 284 -134 285 -425 0 -80
3 -98 15 -99 18 0 738 0 762 1 11 0 18 13 24 43 84 484 -168 971 -609 1177
-181 85 -310 110 -532 104 -261 -7 -389 -26 -563 -83 -118 -39 -188 -69 -442
-193 -227 -112 -413 -187 -500 -204 -8 -2 -33 -8 -55 -14 -82 -22 -244 -37
-390 -34 -82 1 -159 5 -170 7 -17 4 -75 13 -135 22 -187 28 -471 160 -635 296
-124 102 -268 268 -363 421 -43 69 -50 88 -32 88 5 0 74 27 152 61 489 208
941 477 1308 778 635 521 1070 1167 1306 1938 19 65 37 125 39 133 57 238 69
293 95 455 19 119 23 156 35 270 3 33 8 78 10 100 8 71 18 327 18 440 0 114
-12 394 -18 423 -1 9 -6 46 -10 82 -11 112 -43 285 -74 405 -93 365 -262 665
-487 865 -126 113 -225 173 -414 253 -38 16 -156 52 -205 61 -61 12 -81 16
-115 22 -62 10 -384 12 -430 3z m261 -794 c229 -36 461 -242 605 -538 61 -125
124 -332 140 -462 3 -27 9 -70 13 -95 8 -53 6 -357 -3 -415 -3 -22 -10 -73
-16 -112 -5 -40 -19 -114 -31 -165 -12 -51 -27 -122 -35 -158 -8 -36 -18 -76
-23 -90 -5 -14 -19 -62 -31 -108 -106 -411 -336 -902 -593 -1266 -223 -315
-528 -630 -822 -847 -33 -24 -62 -47 -65 -50 -7 -8 -215 -146 -276 -183 -131
-80 -213 -124 -374 -203 -96 -47 -187 -92 -202 -99 -26 -14 -28 -13 -32 8 -17
77 -35 182 -41 238 -4 36 -8 67 -10 70 -2 3 -6 59 -10 125 -15 229 -9 458 20
870 4 55 8 107 10 115 2 8 6 58 10 110 4 52 9 104 11 115 2 11 6 45 9 75 7 67
13 120 30 250 5 38 19 127 41 265 79 479 196 920 349 1305 58 147 190 411 264
530 217 345 476 585 730 678 123 45 217 55 332 37z"/>
<path d="M1596 8284 c137 -135 463 -458 725 -717 634 -629 695 -686 792 -751
142 -95 311 -165 488 -203 127 -27 431 -25 552 5 219 55 370 125 531 249 59
45 390 369 1484 1452 l212 211 -582 0 -582 0 -270 -269 c-448 -446 -721 -714
-757 -744 -49 -41 -170 -97 -226 -105 -141 -19 -275 6 -380 74 -47 30 -445
417 -948 922 l-122 122 -583 0 -584 0 250 -246z"/>
<path d="M3749 6356 c-2 -2 -29 -6 -59 -9 -97 -10 -140 -20 -270 -64 -129 -43
-320 -146 -382 -206 -7 -7 -26 -23 -43 -36 -25 -19 -489 -476 -1531 -1509 -63
-62 -114 -115 -114 -117 0 -3 260 -5 578 -5 l577 1 466 462 c568 563 584 578
652 612 174 85 373 75 526 -26 31 -20 284 -263 566 -543 l510 -505 578 -1
c317 0 577 2 577 4 0 3 -13 17 -29 33 -15 15 -370 366 -787 779 -417 414 -777
768 -799 789 -159 146 -449 291 -642 320 -21 3 -50 8 -63 11 -28 6 -305 15
-311 10z"/>
<path d="M1287 3812 c-18 -4 -18 -3 -18 -272 0 -69 0 -155 0 -192 l1 -68 6380
0 6380 0 0 268 0 267 -6363 0 c-3500 0 -6371 -1 -6380 -3z"/>
</g>
</svg>
